<svg id="Capa_1" enable-background="new 0 0 512 512" height="512" viewBox="0 0 512 512" width="512" xmlns="http://www.w3.org/2000/svg"><g><g><path d="m496.686 72.967c-.008-.009-.016-.018-.025-.026-10.261-10.557-24.026-16.371-38.761-16.371h-403.8c-14.734 0-28.5 5.813-38.761 16.37-.009.009-.017.018-.025.026-9.876 10.149-15.314 23.536-15.314 37.704v290.66c0 14.881 5.914 28.745 16.654 39.043l.036.036c10.107 9.685 23.392 15.02 37.409 15.02h403.801c14.018 0 27.303-5.335 37.409-15.02.012-.012.024-.024.036-.036 10.74-10.298 16.655-24.162 16.655-39.043v-290.66c0-14.168-5.438-27.555-15.314-37.703zm-38.786 362.463h-403.8c-5.07 0-9.988-1.106-14.461-3.203l129.42-116.352c4.107-3.692 4.443-10.015.751-14.122s-10.017-4.444-14.122-.751l-130.942 117.719c-3.096-5.199-4.746-11.153-4.746-17.391v-290.66c0-5.31 1.212-10.446 3.504-15.081l120.096 128.056c3.779 4.028 10.107 4.232 14.135.453 4.028-3.777 4.231-10.106.453-14.135l-120.942-128.958c5.07-2.896 10.833-4.435 16.854-4.435h403.8c6.021 0 11.783 1.539 16.854 4.435l-124.41 132.657c-3.778 4.028-3.575 10.357.453 14.135 1.93 1.809 4.387 2.706 6.839 2.706 2.667 0 5.328-1.061 7.296-3.159l123.564-131.756c2.292 4.636 3.504 9.772 3.504 15.081v290.66c0 6.238-1.65 12.192-4.746 17.391l-134.289-120.73c-4.105-3.692-10.43-3.356-14.122.751s-3.357 10.43.751 14.122l132.767 119.362c-4.472 2.098-9.39 3.205-14.461 3.205z" fill="#020288"/></g><g><g><g><ellipse cx="256" cy="253.516" fill="#fff59b" rx="122.362" ry="122.362" transform="matrix(.707 -.707 .707 .707 -104.282 255.272)"/></g><path d="m256 313.394c-9.907 0-19.814-3.771-27.356-11.313-3.906-3.905-3.906-10.236-.001-14.142 3.904-3.906 10.237-3.905 14.142-.001 7.287 7.287 19.145 7.287 26.432 0 3.906-3.904 10.237-3.904 14.142.001s3.905 10.236-.001 14.142c-7.543 7.542-17.451 11.313-27.358 11.313z" fill="#020288"/><g><g><path d="m216.193 254.118c-5.523 0-10-4.478-10-10v-18.29c0-5.522 4.477-10 10-10 5.522 0 10 4.478 10 10v18.29c0 5.523-4.477 10-10 10z" fill="#020288"/></g><g><path d="m295.807 254.118c-5.522 0-10-4.478-10-10v-18.29c0-5.522 4.478-10 10-10s10 4.478 10 10v18.29c0 5.523-4.478 10-10 10z" fill="#020288"/></g></g></g></g></g></svg>